<!--
  - Copyright (c) 2023-2025 Mariano Barcia
  -
  - Licensed under the Apache License, Version 2.0 (the "License");
  - you may not use this file except in compliance with the License.
  - You may obtain a copy of the License at
  -
  -     http://www.apache.org/licenses/LICENSE-2.0
  -
  - Unless required by applicable law or agreed to in writing, software
  - distributed under the License is distributed on an "AS IS" BASIS,
  - WITHOUT WARRANTIES OR CONDITIONS OF ANY KIND, either express or implied.
  - See the License for the specific language governing permissions and
  - limitations under the License.
  -->

<svg xmlns="http://www.w3.org/2000/svg" width="2400" height="1200" viewBox="0 0 2400 1200">
  <!-- Background -->
  <rect width="2400" height="1200" fill="#f2f4f7"/>

  <g transform="translate(400,400)" filter="url(#shadow)">
    <!-- Shortened blue entry line -->
    <rect x="-120" y="120" width="120" height="40" rx="20" fill="#0a2747"/>

    <!-- Pipeline arrows -->
    <polygon points="0,0 140,140 0,280 -70,280 70,140 -70,0" fill="#0a2747"/>
    <polygon points="0,0 140,140 0,280 -70,280 70,140 -70,0" fill="#b85300" transform="translate(170,0)"/>
    <polygon points="0,0 140,140 0,280 -70,280 70,140 -70,0" fill="#b85300" transform="translate(340,0)"/>
    <polygon points="0,0 140,140 0,280 -70,280 70,140 -70,0" fill="#0a2747" transform="translate(510,0)"/>

    <!-- Green exit flows (only 2) -->
    <rect x="680" y="40" width="160" height="40" fill="#146c2e"/>
    <rect x="680" y="200" width="160" height="40" fill="#146c2e"/>
  </g>

  <!-- Subtle shadow filter -->
  <defs>
    <filter id="shadow" x="-20%" y="-20%" width="140%" height="140%">
      <feDropShadow dx="4" dy="4" stdDeviation="6" flood-color="rgba(0,0,0,0.2)"/>
    </filter>
  </defs>
</svg>